<mxfile host="app.diagrams.net" modified="2022-07-04T17:30:53.750Z" agent="5.0 (Windows NT 10.0; WOW64) AppleWebKit/537.36 (KHTML, like Gecko) Chrome/103.0.0.0 Safari/537.36" etag="lPWFSN56KuL8MUCKp-re" version="20.0.4" type="github">
  <diagram id="hkCzyCOjA-PQ6iPEz9NM" name="Page-1">
    <mxGraphModel dx="1021" dy="567" grid="1" gridSize="10" guides="1" tooltips="1" connect="1" arrows="1" fold="1" page="1" pageScale="1" pageWidth="827" pageHeight="1169" math="0" shadow="0">
      <root>
        <mxCell id="0" />
        <mxCell id="1" parent="0" />
        <mxCell id="iJQVD6eRCjbKx1q8l_-W-43" value="Activity Diagram Login" style="swimlane;fontSize=15;startSize=40;" vertex="1" parent="1">
          <mxGeometry x="40" y="50" width="760" height="990" as="geometry" />
        </mxCell>
        <mxCell id="iJQVD6eRCjbKx1q8l_-W-46" value="&lt;b&gt;Admin/Kurir&lt;/b&gt;" style="text;html=1;strokeColor=none;fillColor=none;align=center;verticalAlign=middle;whiteSpace=wrap;rounded=0;fontSize=15;" vertex="1" parent="iJQVD6eRCjbKx1q8l_-W-43">
          <mxGeometry x="150" y="40" width="60" height="30" as="geometry" />
        </mxCell>
        <mxCell id="iJQVD6eRCjbKx1q8l_-W-47" value="&lt;b&gt;Sistem&amp;nbsp;&lt;/b&gt;" style="text;html=1;strokeColor=none;fillColor=none;align=center;verticalAlign=middle;whiteSpace=wrap;rounded=0;fontSize=15;" vertex="1" parent="iJQVD6eRCjbKx1q8l_-W-43">
          <mxGeometry x="560" y="40" width="60" height="30" as="geometry" />
        </mxCell>
        <mxCell id="iJQVD6eRCjbKx1q8l_-W-48" value="" style="ellipse;whiteSpace=wrap;html=1;aspect=fixed;fontSize=15;strokeColor=#FFFFFF;fillColor=#000000;" vertex="1" parent="iJQVD6eRCjbKx1q8l_-W-43">
          <mxGeometry x="160" y="90" width="40" height="40" as="geometry" />
        </mxCell>
        <mxCell id="iJQVD6eRCjbKx1q8l_-W-50" value="mengakses Halaman Login&amp;nbsp;" style="rounded=1;whiteSpace=wrap;html=1;fontSize=15;" vertex="1" parent="iJQVD6eRCjbKx1q8l_-W-43">
          <mxGeometry x="60" y="180" width="240" height="60" as="geometry" />
        </mxCell>
        <mxCell id="iJQVD6eRCjbKx1q8l_-W-51" value="Menampilkan Halaman Login&amp;nbsp;" style="rounded=1;whiteSpace=wrap;html=1;fontSize=15;" vertex="1" parent="iJQVD6eRCjbKx1q8l_-W-43">
          <mxGeometry x="470" y="180" width="240" height="60" as="geometry" />
        </mxCell>
        <mxCell id="iJQVD6eRCjbKx1q8l_-W-44" value="" style="endArrow=none;html=1;rounded=0;fontSize=15;" edge="1" parent="1">
          <mxGeometry width="50" height="50" relative="1" as="geometry">
            <mxPoint x="40" y="120" as="sourcePoint" />
            <mxPoint x="800" y="120" as="targetPoint" />
          </mxGeometry>
        </mxCell>
        <mxCell id="iJQVD6eRCjbKx1q8l_-W-45" value="" style="endArrow=none;html=1;rounded=0;fontSize=15;exitX=0.5;exitY=1;exitDx=0;exitDy=0;" edge="1" parent="1" source="iJQVD6eRCjbKx1q8l_-W-43">
          <mxGeometry width="50" height="50" relative="1" as="geometry">
            <mxPoint x="440" y="370" as="sourcePoint" />
            <mxPoint x="420" y="90" as="targetPoint" />
          </mxGeometry>
        </mxCell>
        <mxCell id="iJQVD6eRCjbKx1q8l_-W-53" value="Activity Diagram Login" style="swimlane;fontSize=15;startSize=40;" vertex="1" parent="1">
          <mxGeometry x="40" y="50" width="760" height="990" as="geometry" />
        </mxCell>
        <mxCell id="iJQVD6eRCjbKx1q8l_-W-54" value="&lt;b&gt;Admin/Kurir&lt;/b&gt;" style="text;html=1;strokeColor=none;fillColor=none;align=center;verticalAlign=middle;whiteSpace=wrap;rounded=0;fontSize=15;" vertex="1" parent="iJQVD6eRCjbKx1q8l_-W-53">
          <mxGeometry x="150" y="40" width="60" height="30" as="geometry" />
        </mxCell>
        <mxCell id="iJQVD6eRCjbKx1q8l_-W-55" value="&lt;b&gt;Sistem&amp;nbsp;&lt;/b&gt;" style="text;html=1;strokeColor=none;fillColor=none;align=center;verticalAlign=middle;whiteSpace=wrap;rounded=0;fontSize=15;" vertex="1" parent="iJQVD6eRCjbKx1q8l_-W-53">
          <mxGeometry x="560" y="40" width="60" height="30" as="geometry" />
        </mxCell>
        <mxCell id="iJQVD6eRCjbKx1q8l_-W-56" value="" style="ellipse;whiteSpace=wrap;html=1;aspect=fixed;fontSize=15;strokeColor=#FFFFFF;fillColor=#000000;" vertex="1" parent="iJQVD6eRCjbKx1q8l_-W-53">
          <mxGeometry x="160" y="90" width="40" height="40" as="geometry" />
        </mxCell>
        <mxCell id="iJQVD6eRCjbKx1q8l_-W-57" value="" style="ellipse;whiteSpace=wrap;html=1;aspect=fixed;fontSize=15;strokeColor=#FFFFFF;fillColor=#000000;" vertex="1" parent="iJQVD6eRCjbKx1q8l_-W-53">
          <mxGeometry x="180" y="790" width="40" height="40" as="geometry" />
        </mxCell>
        <mxCell id="iJQVD6eRCjbKx1q8l_-W-58" value="mengakses Halaman Login&amp;nbsp;" style="rounded=1;whiteSpace=wrap;html=1;fontSize=15;" vertex="1" parent="iJQVD6eRCjbKx1q8l_-W-53">
          <mxGeometry x="60" y="180" width="240" height="60" as="geometry" />
        </mxCell>
        <mxCell id="iJQVD6eRCjbKx1q8l_-W-59" value="Menampilkan Halaman Login&amp;nbsp;" style="rounded=1;whiteSpace=wrap;html=1;fontSize=15;" vertex="1" parent="iJQVD6eRCjbKx1q8l_-W-53">
          <mxGeometry x="470" y="180" width="240" height="60" as="geometry" />
        </mxCell>
        <mxCell id="iJQVD6eRCjbKx1q8l_-W-60" value="memasukkan username dan password" style="rounded=1;whiteSpace=wrap;html=1;fontSize=15;" vertex="1" parent="iJQVD6eRCjbKx1q8l_-W-53">
          <mxGeometry x="60" y="310" width="240" height="60" as="geometry" />
        </mxCell>
        <mxCell id="iJQVD6eRCjbKx1q8l_-W-52" value="Mengakses Halaman Utama" style="rounded=1;whiteSpace=wrap;html=1;fontSize=15;" vertex="1" parent="iJQVD6eRCjbKx1q8l_-W-53">
          <mxGeometry x="90" y="670" width="240" height="60" as="geometry" />
        </mxCell>
        <mxCell id="iJQVD6eRCjbKx1q8l_-W-61" value="Validasi" style="rhombus;whiteSpace=wrap;html=1;fontSize=15;" vertex="1" parent="iJQVD6eRCjbKx1q8l_-W-53">
          <mxGeometry x="515" y="305" width="150" height="70" as="geometry" />
        </mxCell>
        <mxCell id="iJQVD6eRCjbKx1q8l_-W-62" value="" style="endArrow=classic;html=1;rounded=0;fontSize=15;exitX=0.5;exitY=1;exitDx=0;exitDy=0;entryX=0.5;entryY=0;entryDx=0;entryDy=0;" edge="1" parent="iJQVD6eRCjbKx1q8l_-W-53" source="iJQVD6eRCjbKx1q8l_-W-56" target="iJQVD6eRCjbKx1q8l_-W-58">
          <mxGeometry width="50" height="50" relative="1" as="geometry">
            <mxPoint x="460" y="370" as="sourcePoint" />
            <mxPoint x="510" y="320" as="targetPoint" />
          </mxGeometry>
        </mxCell>
        <mxCell id="iJQVD6eRCjbKx1q8l_-W-63" value="" style="endArrow=classic;html=1;rounded=0;fontSize=15;exitX=1;exitY=0.5;exitDx=0;exitDy=0;entryX=0;entryY=0.5;entryDx=0;entryDy=0;" edge="1" parent="iJQVD6eRCjbKx1q8l_-W-53" source="iJQVD6eRCjbKx1q8l_-W-58" target="iJQVD6eRCjbKx1q8l_-W-59">
          <mxGeometry width="50" height="50" relative="1" as="geometry">
            <mxPoint x="460" y="370" as="sourcePoint" />
            <mxPoint x="510" y="320" as="targetPoint" />
          </mxGeometry>
        </mxCell>
        <mxCell id="iJQVD6eRCjbKx1q8l_-W-64" value="" style="endArrow=classic;html=1;rounded=0;fontSize=15;exitX=0.204;exitY=1.03;exitDx=0;exitDy=0;exitPerimeter=0;entryX=0.5;entryY=0;entryDx=0;entryDy=0;" edge="1" parent="iJQVD6eRCjbKx1q8l_-W-53" source="iJQVD6eRCjbKx1q8l_-W-59" target="iJQVD6eRCjbKx1q8l_-W-60">
          <mxGeometry width="50" height="50" relative="1" as="geometry">
            <mxPoint x="460" y="370" as="sourcePoint" />
            <mxPoint x="510" y="320" as="targetPoint" />
            <Array as="points">
              <mxPoint x="519" y="270" />
              <mxPoint x="180" y="270" />
            </Array>
          </mxGeometry>
        </mxCell>
        <mxCell id="iJQVD6eRCjbKx1q8l_-W-65" value="" style="endArrow=classic;html=1;rounded=0;fontSize=15;exitX=1;exitY=0.5;exitDx=0;exitDy=0;" edge="1" parent="iJQVD6eRCjbKx1q8l_-W-53" source="iJQVD6eRCjbKx1q8l_-W-60" target="iJQVD6eRCjbKx1q8l_-W-61">
          <mxGeometry width="50" height="50" relative="1" as="geometry">
            <mxPoint x="460" y="370" as="sourcePoint" />
            <mxPoint x="510" y="320" as="targetPoint" />
          </mxGeometry>
        </mxCell>
        <mxCell id="iJQVD6eRCjbKx1q8l_-W-66" value="Menampilkan Halaman Utama" style="rounded=1;whiteSpace=wrap;html=1;fontSize=15;" vertex="1" parent="iJQVD6eRCjbKx1q8l_-W-53">
          <mxGeometry x="495" y="670" width="170" height="60" as="geometry" />
        </mxCell>
        <mxCell id="iJQVD6eRCjbKx1q8l_-W-68" value="" style="endArrow=classic;html=1;rounded=0;fontSize=15;exitX=0;exitY=0.5;exitDx=0;exitDy=0;entryX=1;entryY=0.5;entryDx=0;entryDy=0;" edge="1" parent="iJQVD6eRCjbKx1q8l_-W-53" source="iJQVD6eRCjbKx1q8l_-W-66" target="iJQVD6eRCjbKx1q8l_-W-52">
          <mxGeometry width="50" height="50" relative="1" as="geometry">
            <mxPoint x="460" y="390" as="sourcePoint" />
            <mxPoint x="510" y="340" as="targetPoint" />
          </mxGeometry>
        </mxCell>
        <mxCell id="iJQVD6eRCjbKx1q8l_-W-70" value="menampilkan halaman lupa password/ Register&amp;nbsp;" style="rounded=1;whiteSpace=wrap;html=1;fontSize=15;" vertex="1" parent="iJQVD6eRCjbKx1q8l_-W-53">
          <mxGeometry x="610" y="450" width="140" height="60" as="geometry" />
        </mxCell>
        <mxCell id="iJQVD6eRCjbKx1q8l_-W-72" value="memasukkan data register akun" style="rounded=1;whiteSpace=wrap;html=1;fontSize=15;" vertex="1" parent="iJQVD6eRCjbKx1q8l_-W-53">
          <mxGeometry x="60" y="450" width="240" height="60" as="geometry" />
        </mxCell>
        <mxCell id="iJQVD6eRCjbKx1q8l_-W-74" value="" style="endArrow=classic;html=1;rounded=0;fontSize=15;exitX=1;exitY=0.5;exitDx=0;exitDy=0;entryX=0.5;entryY=0;entryDx=0;entryDy=0;" edge="1" parent="iJQVD6eRCjbKx1q8l_-W-53" source="iJQVD6eRCjbKx1q8l_-W-61" target="iJQVD6eRCjbKx1q8l_-W-70">
          <mxGeometry width="50" height="50" relative="1" as="geometry">
            <mxPoint x="460" y="620" as="sourcePoint" />
            <mxPoint x="510" y="570" as="targetPoint" />
            <Array as="points">
              <mxPoint x="680" y="340" />
            </Array>
          </mxGeometry>
        </mxCell>
        <mxCell id="iJQVD6eRCjbKx1q8l_-W-75" value="" style="endArrow=classic;html=1;rounded=0;fontSize=15;exitX=0;exitY=0.5;exitDx=0;exitDy=0;entryX=1;entryY=0.5;entryDx=0;entryDy=0;" edge="1" parent="iJQVD6eRCjbKx1q8l_-W-53" source="iJQVD6eRCjbKx1q8l_-W-70" target="iJQVD6eRCjbKx1q8l_-W-72">
          <mxGeometry width="50" height="50" relative="1" as="geometry">
            <mxPoint x="460" y="620" as="sourcePoint" />
            <mxPoint x="510" y="570" as="targetPoint" />
          </mxGeometry>
        </mxCell>
        <mxCell id="iJQVD6eRCjbKx1q8l_-W-76" value="Validasi pendaftaran/ Password baru" style="rhombus;whiteSpace=wrap;html=1;fontSize=15;" vertex="1" parent="iJQVD6eRCjbKx1q8l_-W-53">
          <mxGeometry x="390" y="520" width="180" height="130" as="geometry" />
        </mxCell>
        <mxCell id="iJQVD6eRCjbKx1q8l_-W-77" value="" style="endArrow=classic;html=1;rounded=0;fontSize=15;exitX=0.5;exitY=1;exitDx=0;exitDy=0;entryX=0;entryY=0.5;entryDx=0;entryDy=0;" edge="1" parent="iJQVD6eRCjbKx1q8l_-W-53" source="iJQVD6eRCjbKx1q8l_-W-72" target="iJQVD6eRCjbKx1q8l_-W-76">
          <mxGeometry width="50" height="50" relative="1" as="geometry">
            <mxPoint x="460" y="620" as="sourcePoint" />
            <mxPoint x="510" y="570" as="targetPoint" />
            <Array as="points">
              <mxPoint x="180" y="585" />
            </Array>
          </mxGeometry>
        </mxCell>
        <mxCell id="iJQVD6eRCjbKx1q8l_-W-78" value="" style="endArrow=classic;html=1;rounded=0;fontSize=15;exitX=0.5;exitY=0;exitDx=0;exitDy=0;entryX=1;entryY=0.5;entryDx=0;entryDy=0;" edge="1" parent="iJQVD6eRCjbKx1q8l_-W-53" source="iJQVD6eRCjbKx1q8l_-W-76" target="iJQVD6eRCjbKx1q8l_-W-59">
          <mxGeometry width="50" height="50" relative="1" as="geometry">
            <mxPoint x="460" y="480" as="sourcePoint" />
            <mxPoint x="510" y="430" as="targetPoint" />
            <Array as="points">
              <mxPoint x="480" y="390" />
              <mxPoint x="730" y="390" />
              <mxPoint x="730" y="210" />
            </Array>
          </mxGeometry>
        </mxCell>
        <mxCell id="iJQVD6eRCjbKx1q8l_-W-79" value="" style="endArrow=classic;html=1;rounded=0;fontSize=15;exitX=1;exitY=0.5;exitDx=0;exitDy=0;entryX=0.5;entryY=1;entryDx=0;entryDy=0;" edge="1" parent="iJQVD6eRCjbKx1q8l_-W-53" source="iJQVD6eRCjbKx1q8l_-W-76" target="iJQVD6eRCjbKx1q8l_-W-70">
          <mxGeometry width="50" height="50" relative="1" as="geometry">
            <mxPoint x="460" y="440" as="sourcePoint" />
            <mxPoint x="510" y="390" as="targetPoint" />
            <Array as="points">
              <mxPoint x="680" y="585" />
            </Array>
          </mxGeometry>
        </mxCell>
        <mxCell id="iJQVD6eRCjbKx1q8l_-W-80" value="" style="endArrow=classic;html=1;rounded=0;fontSize=15;exitX=0.5;exitY=1;exitDx=0;exitDy=0;entryX=0.556;entryY=-0.058;entryDx=0;entryDy=0;entryPerimeter=0;" edge="1" parent="iJQVD6eRCjbKx1q8l_-W-53" source="iJQVD6eRCjbKx1q8l_-W-61" target="iJQVD6eRCjbKx1q8l_-W-66">
          <mxGeometry width="50" height="50" relative="1" as="geometry">
            <mxPoint x="460" y="480" as="sourcePoint" />
            <mxPoint x="510" y="430" as="targetPoint" />
          </mxGeometry>
        </mxCell>
        <mxCell id="iJQVD6eRCjbKx1q8l_-W-81" value="&lt;b&gt;YES&lt;/b&gt;" style="text;html=1;strokeColor=none;fillColor=none;align=center;verticalAlign=middle;whiteSpace=wrap;rounded=0;fontSize=15;" vertex="1" parent="iJQVD6eRCjbKx1q8l_-W-53">
          <mxGeometry x="540" y="375" width="50" height="10" as="geometry" />
        </mxCell>
        <mxCell id="iJQVD6eRCjbKx1q8l_-W-82" value="&lt;b&gt;NO&lt;/b&gt;" style="text;html=1;strokeColor=none;fillColor=none;align=center;verticalAlign=middle;whiteSpace=wrap;rounded=0;fontSize=15;" vertex="1" parent="iJQVD6eRCjbKx1q8l_-W-53">
          <mxGeometry x="650" y="300" width="50" height="45" as="geometry" />
        </mxCell>
        <mxCell id="iJQVD6eRCjbKx1q8l_-W-84" value="&lt;b&gt;YES&lt;/b&gt;" style="text;html=1;strokeColor=none;fillColor=none;align=center;verticalAlign=middle;whiteSpace=wrap;rounded=0;fontSize=15;" vertex="1" parent="iJQVD6eRCjbKx1q8l_-W-53">
          <mxGeometry x="430" y="510" width="50" height="10" as="geometry" />
        </mxCell>
        <mxCell id="iJQVD6eRCjbKx1q8l_-W-85" value="&lt;b&gt;NO&lt;/b&gt;" style="text;html=1;strokeColor=none;fillColor=none;align=center;verticalAlign=middle;whiteSpace=wrap;rounded=0;fontSize=15;" vertex="1" parent="iJQVD6eRCjbKx1q8l_-W-53">
          <mxGeometry x="550" y="550" width="50" height="45" as="geometry" />
        </mxCell>
        <mxCell id="iJQVD6eRCjbKx1q8l_-W-86" value="" style="endArrow=classic;html=1;rounded=0;fontSize=15;exitX=0.459;exitY=1.04;exitDx=0;exitDy=0;exitPerimeter=0;entryX=0.5;entryY=0;entryDx=0;entryDy=0;" edge="1" parent="iJQVD6eRCjbKx1q8l_-W-53" source="iJQVD6eRCjbKx1q8l_-W-52" target="iJQVD6eRCjbKx1q8l_-W-57">
          <mxGeometry width="50" height="50" relative="1" as="geometry">
            <mxPoint x="450" y="770" as="sourcePoint" />
            <mxPoint x="500" y="720" as="targetPoint" />
          </mxGeometry>
        </mxCell>
      </root>
    </mxGraphModel>
  </diagram>
</mxfile>
